<svg xmlns="http://www.w3.org/2000/svg" viewBox="0 0 1600 900"><defs><linearGradient id="s" x1="0" y1="0" x2="0" y2="1"><stop stop-color="#86c9d5"/><stop offset="1" stop-color="#082f31"/></linearGradient><linearGradient id="g"><stop stop-color="#f9f5e9"/><stop offset="1" stop-color="#bfc6c6"/></linearGradient></defs><rect width="1600" height="900" fill="url(#s)"/><circle cx="1300" cy="130" r="75" fill="#ffd67a" opacity=".65"/><rect y="680" width="1600" height="220" fill="#133c35"/><path d="M690 160l110-140 110 140h-45l80 95H655l80-95z" fill="#332a22" stroke="#fff" stroke-width="14"/><path d="M550 310h500v390H550z" fill="url(#g)"/><path d="M520 310h560l-70-95H590z" fill="#3b2d23" stroke="#fff" stroke-width="15"/><rect x="610" y="365" width="120" height="190" rx="60" fill="#0d6a59"/><rect x="870" y="365" width="120" height="190" rx="60" fill="#0d6a59"/><rect x="748" y="420" width="105" height="280" rx="52" fill="#116f5d"/><path d="M520 500h560v35H520z" fill="#fff"/><g fill="#d9b65e"><circle cx="575" cy="340" r="13"/><circle cx="1025" cy="340" r="13"/><circle cx="575" cy="580" r="13"/><circle cx="1025" cy="580" r="13"/></g><g stroke="#111" stroke-width="8"><path d="M540 535h520"/><path d="M570 535v65m70-65v65m70-65v65m180-65v65m70-65v65"/></g><g fill="#0b5c4f" opacity=".9"><circle cx="400" cy="620" r="95"/><circle cx="1180" cy="600" r="120"/><circle cx="1330" cy="625" r="80"/></g></svg>